<svg xmlns="http://www.w3.org/2000/svg" fill="#fff" preserveAspectRatio="xMidYMid meet" height="1em" width="1em" viewBox="0 0 40 40">
  <g>
    <path d="M27.5,30 L12.5,30 C11.125,30 10,28.875 10,27.5 C10,26.125 11.125,25 12.5,25 L27.5,25 C28.875,25 30,26.125 30,27.5 C30,28.875 28.875,30 27.5,30 M12.5,10 L20,10 C21.375,10 22.5,11.125 22.5,12.5 C22.5,13.875 21.375,15 20,15 L12.5,15 C11.125,15 10,13.875 10,12.5 C10,11.125 11.125,10 12.5,10 M37.41375,15 L35.21875,15 L35.17125,15 C33.7975,15 32.59375,13.8375 32.5,12.5 C32.5,5.365 26.7475,0 19.5625,0 L13.0075,0 C5.8275,0 0.005,5.78125 0,12.91625 L0,27.08875 C0,34.22375 5.8275,40 13.0075,40 L27.0075,40 C34.1925,40 40,34.22375 40,27.08875 L40,17.93375 C40,16.5075 38.85,15 37.41375,15"></path>
  </g>
</svg>

