<svg xmlns="http://www.w3.org/2000/svg" width="48" height="48" viewBox="0 0 48 48">
  <g fill="none" fill-rule="evenodd">
    <polygon points="0 48 0 0 48 0 48 48"/>
    <g fill="#FFF" fill-rule="nonzero" transform="translate(3.907 3.907)">
      <path d="M39.7023991,16.175054 L38.0930223,16.175054 L38.0930223,16.0930279 L20.0930223,16.0930279 L20.0930223,24.0930279 L31.3977126,24.0930279 C29.7453684,28.7492763 25.31568,32.0930279 20.0930223,32.0930279 C13.4641172,32.0930279 8.09302233,26.7219321 8.09302233,20.0930279 C8.09302233,13.46412 13.4641172,8.09302791 20.0930223,8.09302791 C23.1516167,8.09302791 25.9367721,9.2453693 28.05396,11.1320902 L33.7102102,5.47584 C30.1398977,2.14771535 25.3625526,0.093027907 20.0930223,0.093027907 C9.04614698,0.093027907 0.0930223256,9.04615256 0.0930223256,20.0930279 C0.0930223256,31.1399051 9.04614698,40.0930279 20.0930223,40.0930279 C31.1398995,40.0930279 40.0930223,31.1399051 40.0930223,20.0930279 C40.0930223,18.7531842 39.9563051,17.4445926 39.7023991,16.1750595 L39.7023991,16.175054 Z"/>
      <path d="M2.39771163 10.7844279L8.97192837 15.6047414C10.7492735 11.2023963 15.0539609 8.09302512 20.0930233 8.09302512 23.1516167 8.09302512 25.9367721 9.24536651 28.05396 11.1320874L33.7102102 5.47583721C30.1398977 2.14771256 25.3625526.0930251163 20.0930233.0930251163 12.4094288.0930251163 5.74927256 4.42896279 2.39771163 10.7844307L2.39771163 10.7844279zM20.0930233 40.0930242C25.2570865 40.0930242 29.9523991 38.1164623 33.5031795 34.9016177L27.311774 29.6633358C25.3039619 31.1828679 22.807867 32.0930233 20.0930233 32.0930233 14.8898986 32.0930233 10.4758353 28.7766167 8.81177302 24.1477116L2.28833581 29.1711488C5.59692837 35.6477116 12.3195851 40.0930242 20.0930233 40.0930242L20.0930233 40.0930242z"/>
      <path d="M39.7023991,16.175054 L38.0930233,16.175054 L38.0930233,16.0930242 L20.0930233,16.0930242 L20.0930233,24.0930242 L31.3977126,24.0930242 C30.6047442,26.331307 29.1633377,28.2570893 27.3078698,29.6633386 C27.3117767,29.6633386 27.3117767,29.6633386 27.3117767,29.6633386 L33.5031823,34.9016205 C33.0656819,35.2961526 40.0930233,30.0930242 40.0930233,20.0930242 C40.0930233,18.7531814 39.9563079,17.4445898 39.7024019,16.1750567 L39.7023991,16.175054 Z"/>
    </g>
  </g>
</svg>

