<svg xmlns="http://www.w3.org/2000/svg" height="800" width="1200" viewBox="-7.93728 -13.2296 68.78976 79.3776"><defs><clipPath id="a"><path d="M0 595.28h841.89V0H0z"/></clipPath></defs><g clip-path="url(#a)" transform="matrix(.35278 0 0 -.35278 -196.111 155.4552)"><path fill-rule="evenodd" fill="#ff6700" d="M700.2027 290.6537H561.5962c-3.145 0-5.6943 2.5495-5.6943 5.6946v138.6162c0 3.1452 2.5493 5.6932 5.6943 5.6932h138.6065c3.145 0 5.6942-2.548 5.6942-5.6932V296.3483c0-3.1451-2.5493-5.6946-5.6942-5.6946"/><g fill="#fff"><path d="M673.5186 393.4786h-11.8004c-.5053 0-.9144-.402-.9144-.8972v-53.8442c0-.491.4091-.8929.9144-.8929h11.8004c.501 0 .9158.402.9158.893v53.8441c0 .4952-.4148.8972-.9158.8972m-40.2916 0h-44.9496c-.5053 0-.9115-.402-.9115-.8972v-53.8442c0-.491.4062-.8929.9115-.8929h11.8033c.5024 0 .9186.402.9186.893v42.2596c0 .488.4062.8929.9115.8929h25.4252c7.1498 0 9.1794-5.4764 9.1794-9.0092v-34.1434c0-.491.4105-.8929.9158-.8929h11.7961c.5024 0 .9144.402.9144.893v38.1971c0 3.151-.379 7.6814-4.444 11.6692-4.2531 4.163-8.133 4.875-12.4708 4.875"/><path d="M624.959 372.0322h-12.3918c-.5053 0-.92-.402-.92-.8943v-32.405c0-.4895.4147-.8914.92-.8914h12.3918c.501 0 .9115.402.9115.8914v32.405c0 .4924-.4105.8943-.9115.8943"/></g></g></svg>