<svg id="Layer_1" data-name="Layer 1" xmlns="http://www.w3.org/2000/svg" viewBox="0 0 46.73 11.2"><defs><style>.cls-1{fill:#2042e3;}.cls-2{fill:#081828;}.cls-3{fill:#fff;}</style></defs><title>sss</title><path class="cls-1" d="M18.07,11.47H3A2.48,2.48,0,0,1,.47,9V2.77A2.48,2.48,0,0,1,3,.27H25l-2.7,8.2A4.42,4.42,0,0,1,18.07,11.47Z" transform="translate(-0.47 -0.27)"/><path class="cls-2" d="M44.71,11.47h-22l2.7-8.2a4.42,4.42,0,0,1,4.2-3h15.1a2.48,2.48,0,0,1,2.5,2.5v6.3A2.46,2.46,0,0,1,44.71,11.47Z" transform="translate(-0.47 -0.27)"/><path class="cls-3" d="M5.65,8A1.64,1.64,0,0,1,5,7.45l.5-.61a1.15,1.15,0,0,0,.95.54q.74,0,.74-.88V4H5.52V3.3H8.1V6.46a1.73,1.73,0,0,1-.41,1.26,1.6,1.6,0,0,1-1.2.42A2,2,0,0,1,5.65,8Z" transform="translate(-0.47 -0.27)"/><path class="cls-3" d="M9.9,7.88a1.74,1.74,0,0,1-.69-.66,1.87,1.87,0,0,1-.25-1,1.86,1.86,0,0,1,.25-1,1.74,1.74,0,0,1,.69-.66,2.21,2.21,0,0,1,2,0,1.75,1.75,0,0,1,.69.66,2,2,0,0,1,0,1.92,1.74,1.74,0,0,1-.69.66,2.21,2.21,0,0,1-2,0Zm1.77-.8A1.13,1.13,0,0,0,12,6.25a1.13,1.13,0,0,0-.31-.82,1,1,0,0,0-.78-.31,1,1,0,0,0-.77.31,1.13,1.13,0,0,0-.3.82,1.13,1.13,0,0,0,.3.82,1,1,0,0,0,.77.31A1,1,0,0,0,11.67,7.07Z" transform="translate(-0.47 -0.27)"/><path class="cls-3" d="M16.61,4.62a1.67,1.67,0,0,1,.66.65,2,2,0,0,1,.24,1,2,2,0,0,1-.24,1,1.66,1.66,0,0,1-.66.66,1.93,1.93,0,0,1-.95.23A1.76,1.76,0,0,1,15,8a1.31,1.31,0,0,1-.52-.39v.47h-.81V3h.85V4.87A1.43,1.43,0,0,1,15,4.51a1.69,1.69,0,0,1,.65-.12A1.93,1.93,0,0,1,16.61,4.62Zm-.27,2.45a1.14,1.14,0,0,0,.3-.82,1.13,1.13,0,0,0-.3-.82,1,1,0,0,0-.77-.31,1.09,1.09,0,0,0-.55.14,1,1,0,0,0-.39.4,1.33,1.33,0,0,0,0,1.2,1,1,0,0,0,.39.4,1.09,1.09,0,0,0,.55.14A1,1,0,0,0,16.34,7.07Z" transform="translate(-0.47 -0.27)"/><path class="cls-3" d="M31.08,5.63h.84v1.9a2.66,2.66,0,0,1-.86.45,3.3,3.3,0,0,1-1,.16,2.72,2.72,0,0,1-1.31-.32,2.35,2.35,0,0,1-.92-.87,2.4,2.4,0,0,1-.33-1.26,2.4,2.4,0,0,1,.33-1.26,2.34,2.34,0,0,1,.92-.87,2.75,2.75,0,0,1,1.32-.32,2.89,2.89,0,0,1,1.09.2A2.14,2.14,0,0,1,32,4l-.56.54A1.79,1.79,0,0,0,30.11,4a1.86,1.86,0,0,0-.9.21,1.54,1.54,0,0,0-.61.59,1.7,1.7,0,0,0-.22.87,1.67,1.67,0,0,0,.22.86,1.58,1.58,0,0,0,.61.6,1.8,1.8,0,0,0,.89.22,1.92,1.92,0,0,0,1-.25Z" transform="translate(-0.47 -0.27)"/><path class="cls-3" d="M35.11,4.39V5.2l-.2,0a1,1,0,0,0-.78.29,1.15,1.15,0,0,0-.28.83V8.07H33V4.43h.81V5A1.42,1.42,0,0,1,35.11,4.39Z" transform="translate(-0.47 -0.27)"/><path class="cls-3" d="M35.87,3.69a.5.5,0,0,1,0-.73.55.55,0,0,1,.39-.15.56.56,0,0,1,.39.14.45.45,0,0,1,.16.35.51.51,0,0,1-.15.38.53.53,0,0,1-.39.15A.55.55,0,0,1,35.87,3.69Zm0,.75h.85V8.07h-.85Z" transform="translate(-0.47 -0.27)"/><path class="cls-3" d="M41.35,3V8.07h-.82V7.6A1.32,1.32,0,0,1,40,8a1.76,1.76,0,0,1-.68.13,1.91,1.91,0,0,1-.94-.23,1.66,1.66,0,0,1-.66-.66,2,2,0,0,1-.24-1,1.94,1.94,0,0,1,.24-1,1.67,1.67,0,0,1,.66-.65,1.92,1.92,0,0,1,.94-.23,1.73,1.73,0,0,1,.66.12,1.33,1.33,0,0,1,.51.37V3ZM40,7.25a1,1,0,0,0,.39-.4,1.33,1.33,0,0,0,0-1.2,1,1,0,0,0-.39-.4,1.16,1.16,0,0,0-1.1,0,1,1,0,0,0-.39.4,1.33,1.33,0,0,0,0,1.2,1,1,0,0,0,.39.4,1.16,1.16,0,0,0,1.1,0Z" transform="translate(-0.47 -0.27)"/><path class="cls-3" d="M42.73,8a2.17,2.17,0,0,1-.67-.29l.33-.65a2.1,2.1,0,0,0,.59.26,2.44,2.44,0,0,0,.68.1q.76,0,.76-.4a.27.27,0,0,0-.19-.27,3.35,3.35,0,0,0-.62-.14,5,5,0,0,1-.73-.16,1.12,1.12,0,0,1-.49-.31.86.86,0,0,1-.21-.62,1,1,0,0,1,.43-.83,2,2,0,0,1,1.17-.31,3.37,3.37,0,0,1,.75.09,2.11,2.11,0,0,1,.61.23l-.33.65a2,2,0,0,0-1-.27,1.15,1.15,0,0,0-.57.11.34.34,0,0,0-.19.3.3.3,0,0,0,.21.29,3.27,3.27,0,0,0,.64.16,5,5,0,0,1,.71.16,1.12,1.12,0,0,1,.48.3.83.83,0,0,1,.2.6,1,1,0,0,1-.44.82,2.09,2.09,0,0,1-1.2.31A3.25,3.25,0,0,1,42.73,8Z" transform="translate(-0.47 -0.27)"/></svg>